HIERARCHY
ROOT SpineBase
{
  OFFSET 0.000000 0.000000 0.000000
  CHANNELS 6 Xposition Yposition Zposition Zrotation Xrotation Yrotation
  JOINT SpineMid
  {
    OFFSET 0.000000 19.157243 0.000000
    CHANNELS 3 Zrotation Xrotation Yrotation
    JOINT SpineShoulder
    {
      OFFSET -0.070995 14.342267 -0.310755
      CHANNELS 3 Zrotation Xrotation Yrotation
      JOINT Neck
      {
        OFFSET 0.095034 4.739660 -0.446456
        CHANNELS 3 Zrotation Xrotation Yrotation
        JOINT Head
        {
          OFFSET 0.386585 10.634808 -7.349297
          CHANNELS 3 Zrotation Xrotation Yrotation
          End Site
          {
            OFFSET 0 0 0
          }
        }
      }
      JOINT ShoulderLeft
      {
        OFFSET -8.868032 0.025601 6.872902
        CHANNELS 3 Zrotation Xrotation Yrotation
        JOINT ElbowLeft
        {
          OFFSET -7.495726 -15.660374 -5.163034
          CHANNELS 3 Zrotation Xrotation Yrotation
          JOINT WristLeft
          {
            OFFSET -7.548030 -5.250881 -23.090661
            CHANNELS 3 Zrotation Xrotation Yrotation
            JOINT HandLeft
            {
              OFFSET -6.430401 0.813981 -5.553216
              CHANNELS 3 Zrotation Xrotation Yrotation
              JOINT HandTipLeft
              {
                OFFSET 0.466539 1.147187 -2.708254
                CHANNELS 3 Zrotation Xrotation Yrotation
                End Site
                {
                  OFFSET 0 0 0
                }
              }
              JOINT ThumbLeft
              {
                OFFSET 1.034773 -0.404228 -2.726592
                CHANNELS 3 Zrotation Xrotation Yrotation
                End Site
                {
                  OFFSET 0 0 0
                }
              }
            }
          }
        }
      }
      JOINT ShoulderRight
      {
        OFFSET 12.293021 -1.339933 -11.109856
        CHANNELS 3 Zrotation Xrotation Yrotation
        JOINT ElbowRight
        {
          OFFSET 2.635199 -18.738948 -1.200152
          CHANNELS 3 Zrotation Xrotation Yrotation
          JOINT WristRight
          {
            OFFSET -5.120413 -18.047263 -12.007855
            CHANNELS 3 Zrotation Xrotation Yrotation
            JOINT HandRight
            {
              OFFSET -4.589677 -4.828556 1.642482
              CHANNELS 3 Zrotation Xrotation Yrotation
              JOINT HandTipRight
              {
                OFFSET -2.465494 -4.261674 -1.216830
                CHANNELS 3 Zrotation Xrotation Yrotation
                End Site
                {
                  OFFSET 0 0 0
                }
              }
              JOINT ThumbRight
              {
                OFFSET 3.047673 -2.698967 2.164537
                CHANNELS 3 Zrotation Xrotation Yrotation
                End Site
                {
                  OFFSET 0 0 0
                }
              }
            }
          }
        }
      }
    }
  }
  JOINT HipLeft
  {
    OFFSET -5.277656 0.304234 0.974624
    CHANNELS 3 Zrotation Xrotation Yrotation
    JOINT KneeLeft
    {
      OFFSET -8.712854 -3.969661 -25.102544
      CHANNELS 3 Zrotation Xrotation Yrotation
      JOINT AnkleLeft
      {
        OFFSET 3.596867 -38.928292 9.074069
        CHANNELS 3 Zrotation Xrotation Yrotation
        JOINT FootLeft
        {
          OFFSET -3.648877 -7.446998 -2.947463
          CHANNELS 3 Zrotation Xrotation Yrotation
          End Site
          {
            OFFSET 0 0 0
          }
        }
      }
    }
  }
  JOINT HipRight
  {
    OFFSET 4.684527 0.531863 -5.954075
    CHANNELS 3 Zrotation Xrotation Yrotation
    JOINT KneeRight
    {
      OFFSET -21.660813 -13.518080 -20.580449
      CHANNELS 3 Zrotation Xrotation Yrotation
      JOINT AnkleRight
      {
        OFFSET 8.107121 -30.418334 12.143143
        CHANNELS 3 Zrotation Xrotation Yrotation
        JOINT FootRight
        {
          OFFSET -6.343228 -5.408595 -4.442172
          CHANNELS 3 Zrotation Xrotation Yrotation
          End Site
          {
            OFFSET 0 0 0
          }
        }
      }
    }
  }
}
MOTION
Frames: 12
Frame Time: 0.033333
46.894819 52.294518 387.399339 2.465754 2.716641 34.928391 -0.295874 0.003700 -34.928319 2.075483 1.937624 0.228700 -2.667237 1.036612 0.512956 0.000000 0.000000 0.000000 -8.775677 2.010250 -2.114597 9.434437 -15.355102 -6.849289 -14.214748 13.252755 18.053063 8.135422 -13.045974 1.058386 0.000000 0.000000 0.000000 0.000000 0.000000 0.000000 -2.635733 -5.410324 -0.578623 -2.785955 3.449700 0.295609 2.522261 0.745907 -2.631064 -5.231441 -8.201467 6.102264 0.000000 0.000000 0.000000 0.000000 0.000000 0.000000 -4.227509 -1.949156 -32.753174 -0.067574 1.307263 -2.273990 1.206219 0.383259 -0.671822 0.000000 0.000000 0.000000 -3.157156 -4.496300 -34.229065 -3.998150 1.429893 -1.639757 5.886556 -0.158117 -0.783540 0.000000 0.000000 0.000000
46.951794 52.303626 387.390118 2.637178 2.722918 34.894472 -0.226075 0.001431 -34.892670 2.109451 1.913845 0.246116 -3.668218 0.739603 -0.059758 0.000000 0.000000 0.000000 -9.141568 1.927095 -2.090764 9.566808 -15.438766 -6.953689 -14.051548 13.240377 16.927413 9.827024 -1.838401 0.822185 0.000000 0.000000 0.000000 0.000000 0.000000 0.000000 -2.739303 -5.861918 -0.664012 -2.962701 3.835077 0.397958 3.202584 0.017752 -1.644854 -6.953229 -5.549453 4.325625 0.000000 0.000000 0.000000 0.000000 0.000000 0.000000 -4.473466 -2.159851 -32.554885 -0.139083 1.616869 -2.442698 1.283641 0.351770 -0.687307 0.000000 0.000000 0.000000 -3.362161 -5.040981 -33.733548 -4.155795 2.119736 -1.994935 5.257553 0.419899 -1.280772 0.000000 0.000000 0.000000
46.977659 52.317435 387.382927 2.723222 2.677018 34.877826 -0.270680 -0.100056 -34.872397 2.019866 1.810612 0.250437 -3.870174 0.345233 -0.167554 0.000000 0.000000 0.000000 -10.343460 7.831546 -3.958128 13.280598 -23.950724 -2.953083 -16.407444 16.966508 19.531384 7.568176 -8.183854 -4.649304 0.000000 0.000000 0.000000 0.000000 0.000000 0.000000 -2.455803 -5.642482 -0.667183 -3.339123 3.610333 0.550352 2.311612 2.640636 -4.465295 -6.549826 -5.947740 5.712399 0.000000 0.000000 0.000000 0.000000 0.000000 0.000000 -4.607041 -2.400945 -32.505216 -0.237809 1.940779 -2.475461 1.302445 0.809927 -0.924122 0.000000 0.000000 0.000000 -3.458548 -4.814164 -33.664215 -4.250495 2.378126 -2.043944 6.878850 -1.164240 -0.867610 0.000000 0.000000 0.000000
47.010097 52.335360 387.371776 2.814835 2.569884 34.991606 -0.452571 -0.304109 -34.980905 1.857090 1.603830 0.253034 -3.700531 0.208687 -0.068665 0.000000 0.000000 0.000000 -10.496009 9.115053 -4.059387 13.986180 -25.158944 -2.448058 -16.499573 17.425473 19.101921 4.991192 -8.997946 -9.321956 0.000000 0.000000 0.000000 0.000000 0.000000 0.000000 -2.066638 -4.940392 -0.646371 -3.524866 3.047572 0.606292 1.427944 3.823473 -5.512811 -6.894872 -6.227817 6.544893 0.000000 0.000000 0.000000 0.000000 0.000000 0.000000 -4.666809 -2.449570 -32.689723 -0.312183 2.129555 -2.398104 1.104012 1.488671 -1.180237 0.000000 0.000000 0.000000 -3.607779 -4.125596 -33.755768 -4.284335 2.741858 -2.056245 7.497835 -2.752234 0.213487 0.000000 0.000000 0.000000
47.003949 52.364062 387.361782 2.806809 2.407961 35.161704 -0.748302 -0.632363 -35.144113 1.594565 1.270116 0.248985 -2.574315 1.328639 0.542865 0.000000 0.000000 0.000000 -10.270887 8.913202 -3.433311 13.497801 -23.677325 -3.589497 -15.537364 16.488531 18.088114 5.434127 -4.904063 -8.510497 0.000000 0.000000 0.000000 0.000000 0.000000 0.000000 -1.461452 -3.873108 -0.615099 -3.839099 2.843028 0.647546 1.278204 3.968516 -5.690245 -6.723252 -5.809419 6.428578 0.000000 0.000000 0.000000 0.000000 0.000000 0.000000 -4.551484 -2.318966 -33.033855 -0.356604 1.315507 -2.282052 1.246304 3.133747 -1.608491 0.000000 0.000000 0.000000 -3.527017 -3.584332 -34.097276 -4.218083 2.608697 -1.901058 7.597577 -3.385673 0.881086 0.000000 0.000000 0.000000
47.020071 52.390234 387.298603 2.857284 2.419410 35.359611 -0.977312 -0.877350 -35.340299 1.465459 1.213499 0.244097 -1.832326 1.480333 1.007667 0.000000 0.000000 0.000000 -9.564977 7.166323 -2.751325 11.836494 -20.402302 -5.108750 -14.686612 15.040331 16.962391 4.400117 -6.756502 -8.605811 0.000000 0.000000 0.000000 0.000000 0.000000 0.000000 -1.125933 -2.779174 -0.532804 -4.474358 2.104939 0.831053 1.054682 3.507487 -5.695730 -6.514006 -5.055131 6.206663 0.000000 0.000000 0.000000 0.000000 0.000000 0.000000 -4.589564 -2.292420 -33.380047 -0.382136 1.127109 -2.149121 1.542973 4.311151 -2.220613 0.000000 0.000000 0.000000 -3.555231 -3.309427 -34.483246 -4.566115 3.051118 -1.702399 6.909150 -4.634240 2.705879 0.000000 0.000000 0.000000
46.987887 52.415878 387.310091 2.781230 2.238093 35.464312 -1.107849 -1.080617 -35.439647 1.331758 1.047742 0.242135 -1.376762 1.488258 1.228107 0.000000 0.000000 0.000000 -8.529950 3.660918 -1.289568 9.487462 -14.372936 -7.935363 -12.496787 12.191609 16.224254 6.654774 0.163763 -4.313901 0.000000 0.000000 0.000000 0.000000 0.000000 0.000000 -0.948322 -1.727950 -0.478122 -4.569257 1.415719 0.885489 -0.023043 2.335425 -4.832423 -5.599567 -2.110022 4.749204 0.000000 0.000000 0.000000 0.000000 0.000000 0.000000 -4.426028 -2.246581 -33.608544 -0.380855 1.063655 -2.014912 1.241167 5.412705 -2.590347 0.000000 0.000000 0.000000 -3.282720 -3.300005 -34.783619 -5.280042 3.705317 -1.499934 5.980388 -5.666952 4.518127 0.000000 0.000000 0.000000
46.864487 52.428579 387.351604 2.478206 1.972603 35.516165 -1.122049 -1.305822 -35.485560 1.151918 0.969238 0.224767 -0.622095 1.685973 1.541879 0.000000 0.000000 0.000000 -8.917834 6.220450 -1.773726 10.917857 -17.417040 -6.861627 -13.697948 13.603204 17.185536 4.839041 -6.901822 -6.332533 0.000000 0.000000 0.000000 0.000000 0.000000 0.000000 -0.721003 -1.059176 -0.438261 -4.406451 1.050292 0.899148 1.082625 1.142294 -3.187888 -7.031076 -0.699480 3.271443 0.000000 0.000000 0.000000 0.000000 0.000000 0.000000 -4.003704 -2.228942 -33.869540 -0.399153 1.125227 -1.781976 0.597544 6.339594 -2.784920 0.000000 0.000000 0.000000 -2.662713 -3.375627 -35.272313 -6.352755 4.144312 -1.167967 7.631413 -7.842408 6.440741 0.000000 0.000000 0.000000
46.759781 52.431001 387.401704 2.288845 1.794114 35.506906 -0.968861 -1.310954 -35.471875 1.207321 1.143855 0.218228 -0.613752 1.260325 1.566033 0.000000 0.000000 0.000000 -8.735866 3.341880 -0.691201 10.208948 -14.091576 -10.071148 -13.970638 12.542265 18.826478 8.917417 -5.209268 2.208839 0.000000 0.000000 0.000000 0.000000 0.000000 0.000000 -0.896275 -0.900784 -0.398615 -4.126211 0.444500 0.880288 0.185868 0.586003 -2.599541 -7.587941 2.863616 1.861345 0.000000 0.000000 0.000000 0.000000 0.000000 0.000000 -3.728585 -2.209503 -34.005707 -0.382165 1.279252 -1.605669 -0.137437 6.833586 -2.789986 0.000000 0.000000 0.000000 -2.235691 -3.449162 -35.590536 -6.859994 4.282212 -0.867050 5.220471 -7.177580 7.291473 0.000000 0.000000 0.000000
46.767368 52.435707 387.401941 2.344383 1.796847 35.532249 -0.749812 -1.109828 -35.494509 1.439968 1.503764 0.222796 -1.914325 -0.624464 0.937068 0.000000 0.000000 0.000000 -8.448686 -0.786413 0.472722 8.726113 -8.933698 -11.966469 -12.611850 10.571003 17.457508 10.496049 -4.801020 7.681618 0.000000 0.000000 0.000000 0.000000 0.000000 0.000000 -1.381901 -1.309808 -0.381835 -4.097555 0.114632 0.920492 0.885780 0.103214 -1.966031 -6.976452 0.860779 2.179283 0.000000 0.000000 0.000000 0.000000 0.000000 0.000000 -3.783883 -2.160165 -33.938251 -0.460586 2.174754 -1.640972 -0.633746 6.156440 -2.669962 0.000000 0.000000 0.000000 -2.244738 -3.578570 -35.633738 -7.159432 4.611861 -0.824260 2.080544 -6.213403 8.023310 0.000000 0.000000 0.000000
46.868875 52.439802 387.348460 2.620103 2.012606 35.574348 -0.519237 -0.743737 -35.540339 1.758626 1.964928 0.231967 -3.512871 -2.050728 0.149743 0.000000 0.000000 0.000000 -7.722246 -6.494606 1.990043 6.219064 -0.563827 -12.304930 -8.292239 6.100823 10.680392 7.916055 -4.431725 8.809370 0.000000 0.000000 0.000000 0.000000 0.000000 0.000000 -2.100157 -2.241530 -0.395567 -4.075224 -0.052091 0.957092 1.096379 -0.107861 -1.820693 -7.579743 1.585552 1.873218 0.000000 0.000000 0.000000 0.000000 0.000000 0.000000 -4.162218 -2.125852 -33.698145 -0.401684 2.153588 -1.934691 -1.099401 5.933199 -2.357836 0.000000 0.000000 0.000000 -2.624216 -3.833501 -35.514591 -7.400975 5.038861 -0.955042 -4.235280 -4.337881 9.676536 0.000000 0.000000 0.000000
46.949561 52.442475 387.318957 2.841113 2.107983 35.727346 -0.378291 -0.512355 -35.696980 1.990174 2.159588 0.248619 -4.848839 -3.598704 -0.535208 0.000000 0.000000 0.000000 -8.741946 -4.558522 0.922829 6.456422 -3.166769 -9.158448 -6.464051 5.583380 5.799391 9.525313 7.596103 17.306580 0.000000 0.000000 0.000000 0.000000 0.000000 0.000000 -2.858679 -2.625148 -0.414700 -3.649663 -0.479135 0.909291 -0.676790 0.484646 -2.660326 -3.911681 0.372585 2.600361 0.000000 0.000000 0.000000 0.000000 0.000000 0.000000 -4.445512 -2.083337 -33.584339 -0.367462 2.196119 -2.206724 -1.346351 5.346509 -1.977684 0.000000 0.000000 0.000000 -2.938381 -3.943207 -35.438389 -7.263082 5.155399 -1.143770 -8.609135 -2.756061 10.584768 0.000000 0.000000 0.000000
